{
    "asset": {
        "version": "2.0",
        "generator": "Open Asset Import Library (assimp v5.4.0)"
    },
    "extensionsUsed": [
        "KHR_materials_volume",
        "FB_ngon_encoding"
    ],
    "accessors": [
        {
            "bufferView": 0,
            "byteOffset": 0,
            "componentType": 5126,
            "count": 2444,
            "type": "VEC3",
            "max": [
                200.0,
                205.0,
                0.0
            ],
            "min": [
                -200.0,
                -205.0,
                0.0
            ]
        },
        {
            "bufferView": 1,
            "byteOffset": 0,
            "componentType": 5126,
            "count": 2444,
            "type": "VEC3",
            "max": [
                1.0,
                0.0,
                0.0
            ],
            "min": [
                1.0,
                0.0,
                0.0
            ]
        },
        {
            "bufferView": 2,
            "byteOffset": 0,
            "componentType": 5126,
            "count": 2444,
            "type": "VEC2",
            "max": [
                1.0,
                1.0
            ],
            "min": [
                0.0,
                0.0
            ]
        },
        {
            "bufferView": 3,
            "byteOffset": 0,
            "componentType": 5125,
            "count": 6472,
            "type": "SCALAR",
            "max": [
                2443
            ],
            "min": [
                0
            ]
        },
        {
            "bufferView": 4,
            "byteOffset": 0,
            "componentType": 5126,
            "count": 3322,
            "type": "VEC3",
            "max": [
                207.5,
                212.5,
                10.0
            ],
            "min": [
                -207.5,
                -212.5,
                -10.0
            ]
        },
        {
            "bufferView": 5,
            "byteOffset": 0,
            "componentType": 5126,
            "count": 3322,
            "type": "VEC3",
            "max": [
                1.0,
                1.0,
                1.0
            ],
            "min": [
                -1.0,
                -1.0,
                -1.0
            ]
        },
        {
            "bufferView": 6,
            "byteOffset": 0,
            "componentType": 5126,
            "count": 3322,
            "type": "VEC2",
            "max": [
                1.0,
                1.0
            ],
            "min": [
                0.0,
                0.0
            ]
        },
        {
            "bufferView": 7,
            "byteOffset": 0,
            "componentType": 5125,
            "count": 9804,
            "type": "SCALAR",
            "max": [
                3321
            ],
            "min": [
                0
            ]
        }
    ],
    "buffers": [
        {
            "byteLength": 249616,
            "uri": "tattoo_0.bin"
        }
    ],
    "bufferViews": [
        {
            "buffer": 0,
            "byteOffset": 0,
            "byteLength": 29328,
            "target": 34962
        },
        {
            "buffer": 0,
            "byteOffset": 29328,
            "byteLength": 29328,
            "target": 34962
        },
        {
            "buffer": 0,
            "byteOffset": 58656,
            "byteLength": 19552,
            "target": 34962
        },
        {
            "buffer": 0,
            "byteOffset": 78208,
            "byteLength": 25888,
            "target": 34963
        },
        {
            "buffer": 0,
            "byteOffset": 104096,
            "byteLength": 39864,
            "target": 34962
        },
        {
            "buffer": 0,
            "byteOffset": 143960,
            "byteLength": 39864,
            "target": 34962
        },
        {
            "buffer": 0,
            "byteOffset": 183824,
            "byteLength": 26576,
            "target": 34962
        },
        {
            "buffer": 0,
            "byteOffset": 210400,
            "byteLength": 39216,
            "target": 34963
        }
    ],
    "materials": [
        {
            "name": "Default Material",
            "pbrMetallicRoughness": {
                "baseColorFactor": [
                    0.4019777774810791,
                    0.4019777774810791,
                    0.4019777774810791,
                    1.0
                ],
                "metallicFactor": 0.30000001192092896,
                "roughnessFactor": 0.44999998807907104
            }
        }
    ],
    "meshes": [
        {
            "name": "meshes[0]",
            "primitives": [
                {
                    "mode": 1,
                    "material": 0,
                    "indices": 3,
                    "attributes": {
                        "POSITION": 0,
                        "NORMAL": 1,
                        "TEXCOORD_0": 2
                    }
                },
                {
                    "mode": 4,
                    "material": 0,
                    "indices": 7,
                    "attributes": {
                        "POSITION": 4,
                        "NORMAL": 5,
                        "TEXCOORD_0": 6
                    }
                }
            ]
        }
    ],
    "nodes": [
        {
            "name": "tattoo",
            "children": [
                1
            ]
        },
        {
            "name": "nodes[0]",
            "mesh": 0
        }
    ],
    "scenes": [
        {
            "nodes": [
                0
            ]
        }
    ],
    "scene": 0
}